<?xml version="1.0" encoding="UTF-8"?>
<svg width="38px" height="32px" viewBox="0 0 38 32" version="1.1" xmlns="http://www.w3.org/2000/svg" xmlns:xlink="http://www.w3.org/1999/xlink">
    <!-- Generator: Sketch 52.5 (67469) - http://www.bohemiancoding.com/sketch -->
    <title>Hide</title>
    <desc>Created with Sketch.</desc>
    <g id="final" stroke="none" stroke-width="1" fill="none" fill-rule="evenodd">
        <g id="similar-search-copy-36" transform="translate(-5.000000, -8.000000)">
            <g id="Hide">
                <g stroke-width="1" fill-rule="evenodd" transform="translate(5.000000, 8.000000)" fill="#333333" opacity="0.3">
                    <path d="M3.72201498,15.5437273 C5.14958962,17.8159545 9.96085299,24.1818182 18.9995682,24.1818182 C28.0365561,24.1818182 32.8469559,17.8194091 34.277985,15.5437273 C32.8504104,13.2697727 28.0495105,6.90909091 18.9995682,6.90909091 C9.95048947,6.90909091 5.14872599,13.2697727 3.72201498,15.5437273 M18.9995682,27.6363636 C6.06848824,27.6363636 0.421234401,16.7882273 0.186327987,16.3261818 C-0.0615328256,15.8356364 -0.0623964521,15.257 0.18546436,14.7664545 C0.419507148,14.3035455 6.04948846,3.45454545 18.9995682,3.45454545 C31.9505115,3.45454545 37.5804929,14.3035455 37.8145356,14.7664545 C38.0623965,15.257 38.0615328,15.8356364 37.813672,16.3261818 C37.5787656,16.7882273 31.9315118,27.6363636 18.9995682,27.6363636" id="Fill-257"/>
                    <path d="M19,6.90909091 C14.2379091,6.90909091 10.3636364,10.7833636 10.3636364,15.5454545 C10.3636364,20.3075455 14.2379091,24.1818182 19,24.1818182 C23.7620909,24.1818182 27.6363636,20.3075455 27.6363636,15.5454545 C27.6363636,10.7833636 23.7620909,6.90909091 19,6.90909091 M19,27.6363636 C12.3327273,27.6363636 6.90909091,22.2118636 6.90909091,15.5454545 C6.90909091,8.87904545 12.3327273,3.45454545 19,3.45454545 C25.6672727,3.45454545 31.0909091,8.87904545 31.0909091,15.5454545 C31.0909091,22.2118636 25.6672727,27.6363636 19,27.6363636" id="Fill-258"/>
                    <path d="M5.18162626,31.0909091 C4.7394383,31.0909091 4.29811399,30.9224988 3.96042748,30.5848147 C3.28591811,29.91031 3.28591811,28.8169388 3.96042748,28.1424341 L31.597175,0.505878513 C32.2716843,-0.168626171 33.3650632,-0.168626171 34.0395725,0.505878513 C34.7140819,1.1803832 34.7140819,2.27375443 34.0395725,2.94825911 L6.40282504,30.5848147 C6.06513853,30.9224988 5.62381422,31.0909091 5.18162626,31.0909091" id="Fill-259"/>
                </g>
                <rect id="Rectangle" fill-opacity="0" fill="#FFFFFF" fill-rule="nonzero" x="0" y="0" width="48" height="48"/>
            </g>
        </g>
    </g>
</svg>